<svg width="0" height="0" class="hidden">
  <symbol xmlns="http://www.w3.org/2000/svg" viewBox="0 0 20 20" id="arrow-right">
    <path fill-rule="evenodd" clip-rule="evenodd" d="M3 10v1h11v3l4-3.5L14 7v3H3z" ></path>
  </symbol>
  <symbol  xmlns="http://www.w3.org/2000/svg" viewBox="0 0 15 15" id="comment">
    <path fill-rule="evenodd" clip-rule="evenodd" d="M11.135 12v3L8.36 12H2.25a1.5 1.5 0 01-1.5-1.5V3a1.5 1.5 0 011.5-1.5h10.5a1.5 1.5 0 011.5 1.5v7.5a1.5 1.5 0 01-1.5 1.5h-1.615z" ></path>
  </symbol>
  <symbol xmlns="http://www.w3.org/2000/svg" viewBox="0 0 15 15" id="heart">
    <path fill-rule="evenodd" clip-rule="evenodd" d="M12.84 2.96c-.67-.748-1.56-1.16-2.505-1.16-.947 0-1.74.412-2.41 1.16l-.425.68-.425-.68c-.669-.748-1.463-1.16-2.41-1.16-.945 0-1.835.412-2.504 1.16C.78 4.506.78 7.02 2.16 8.564l4.949 4.757a.523.523 0 00.393.179c.14 0 .28-.06.387-.18l4.95-4.756c1.38-1.544 1.38-4.058 0-5.604z" ></path>
  </symbol>
  <symbol  xmlns="http://www.w3.org/2000/svg" viewBox="0 0 20 20" id="download">
    <path fill-rule="evenodd" clip-rule="evenodd" d="M18 13.426c0-.237.263-.426.5-.426s.5.189.5.426v4.134a.44.44 0 01-.432.44H2.426A.435.435 0 012 17.56v-4.134c0-.237.263-.426.5-.426s.5.189.5.426V17h15v-3.574zM11 1v10h3l-3.5 4L7 11h3V1h1z" ></path>
  </symbol>
  <symbol  xmlns="http://www.w3.org/2000/svg" viewBox="0 0 20 20" id="flag">
    <path fill-rule="evenodd" clip-rule="evenodd" d="M5 1h10a2 2 0 012 2v16l-6.905-5L3 19V3a2 2 0 012-2z"></path>
  </symbol>
  <symbol  xmlns="http://www.w3.org/2000/svg" viewBox="0 0 21 20" id="image">
    <path fill-rule="evenodd" clip-rule="evenodd" d="M3.5 6V4a1 1 0 011-1h14a1 1 0 011 1v10a1 1 0 01-1 1h-2v2a1 1 0 01-1 1h-14a1 1 0 01-1-1V7a1 1 0 011-1h2zm12 9h-11a1 1 0 01-1-1V7h-2v10h14v-2zM4.5 4v10h14V4h-14zm14 10h-14v-1l3-3 3 2 4-4 4 5v1zM10 9a1.5 1.5 0 110-3 1.5 1.5 0 010 3z" ></path>
  </symbol>
  <symbol fill="none" xmlns="http://www.w3.org/2000/svg" viewBox="0 0 50 50" id="logo-2">
    <path fill-rule="evenodd" clip-rule="evenodd" d="M25 50c13.807 0 25-11.193 25-25S38.807 0 25 0 0 11.193 0 25s11.193 25 25 25z" fill="#4592FF"></path>
    <mask id="a" maskUnits="userSpaceOnUse" x="0" y="0" width="50" height="50">
      <path fill-rule="evenodd" clip-rule="evenodd" d="M25 50c13.807 0 25-11.193 25-25S38.807 0 25 0 0 11.193 0 25s11.193 25 25 25z" fill="#fff"></path>
    </mask>
    <g mask="url(#a)" fill="#fff">
      <path d="M1.926 27.131c.643 0 1.217-.106 1.72-.32a3.52 3.52 0 001.287-.899c.347-.385.61-.853.792-1.403.19-.55.285-1.166.285-1.847V12h3.33v10.662c0 1.059-.174 2.04-.52 2.943a6.633 6.633 0 01-1.473 2.327c-.636.648-1.411 1.157-2.327 1.526-.916.361-1.947.542-3.094.542-1.155 0-2.19-.18-3.107-.542a6.87 6.87 0 01-2.339-1.526 6.876 6.876 0 01-1.473-2.327c-.338-.903-.507-1.884-.507-2.943V12h3.33v10.65c0 .681.09 1.297.271 1.847.19.55.458 1.021.805 1.415.355.386.784.686 1.287.9.512.213 1.09.32 1.733.32zM28.18 12v17.803h-1.707c-.264 0-.487-.041-.669-.123a1.652 1.652 0 01-.507-.443l-9.344-11.869c.05.542.074 1.042.074 1.502v10.933h-2.933V12h1.745c.14 0 .26.008.359.025a.663.663 0 01.272.073c.082.033.16.087.235.16.074.066.157.157.248.271l9.38 11.918c-.024-.287-.044-.57-.061-.85a13.614 13.614 0 01-.025-.775V12h2.933zm19.32 0l-7.228 17.803h-3.007L30.037 12h2.673c.29 0 .524.07.706.21.181.139.318.32.408.541l4.22 10.86c.14.352.273.742.397 1.169.132.418.255.857.37 1.317.1-.46.207-.899.323-1.317.115-.427.243-.817.383-1.17l4.196-10.859c.066-.189.194-.361.383-.517.199-.156.438-.234.718-.234H47.5z"></path>
    </g>
  </symbol>
</svg>